<?xml version="1.0" encoding="utf-8"?>
<!-- Generator: Adobe Illustrator 24.3.0, SVG Export Plug-In . SVG Version: 6.00 Build 0)  -->
<svg version="1.1" id="Layer_1" xmlns="http://www.w3.org/2000/svg" xmlns:xlink="http://www.w3.org/1999/xlink" x="0px" y="0px"
	 viewBox="0 0 300 300" style="enable-background:new 0 0 300 300;" xml:space="preserve">
<style type="text/css">
	.st0{fill:#FFFFFF;}
</style>
<path class="st0" d="M150,0C67.3,0,0,67.3,0,150s67.3,150,150,150s150-67.3,150-150S232.7,0,150,0z M267.1,75.9
	c-65.5,3.3-110.3,55.5-120.2,68.2c-9-0.9-34.7-4.4-61.6-16.9c7.9-18.8,42.6-88.6,127.5-100.7C235,37.7,253.8,54.9,267.1,75.9z
	 M150,11.3c15.3,0,30,2.5,43.8,7.1C117,37.4,83.9,101.6,75.1,122C58.4,112.7,42,99.6,29.7,81.1C53.7,39.5,98.6,11.3,150,11.3z
	 M11.3,150c0-20.5,4.5-39.9,12.5-57.5c39.6,53.9,109.9,61.9,123.6,63c3.4,8.2,12,31.5,13.9,60c-22.9,3.1-97,7.1-149.7-56.7
	C11.5,155.9,11.3,153,11.3,150z M147,288.6c-65.2-1.4-119.6-48.1-132.6-109.9c41.8,41.7,92.5,49.5,124.7,49.5
	c9.4,0,17.2-0.7,22.7-1.4C161.7,246.7,158,268.3,147,288.6z M226.3,265.7c-19.3,12.8-42,20.8-66.4,22.5
	c29.1-60.5,2.8-126.6-2.7-138.9c6.9-8.4,25-28.4,51-43.5C221.1,124.3,259.5,189,226.3,265.7z M243.2,252.6
	c22.5-72.3-11.4-132-25.1-152c16.1-7.9,34.7-13.5,55.3-13.5c9.7,18.9,15.2,40.3,15.2,63C288.7,190.6,271.1,227.2,243.2,252.6z"/>
</svg>
